<?xml version="1.0" encoding="UTF-8" standalone="no"?>
<!DOCTYPE svg PUBLIC "-//W3C//DTD SVG 1.1//EN" "http://www.w3.org/Graphics/SVG/1.1/DTD/svg11.dtd">
<svg width="100%" height="100%" viewBox="0 0 1024 1024" version="1.1" xmlns="http://www.w3.org/2000/svg" xmlns:xlink="http://www.w3.org/1999/xlink" xml:space="preserve" xmlns:serif="http://www.serif.com/" style="fill-rule:evenodd;clip-rule:evenodd;stroke-linejoin:round;stroke-miterlimit:2;">
    <g id="Background">
        <path d="M0,0L1023.999,0C1025.156,2.148 1023.999,2.338 1023.999,30.5L1023.999,1023.999C1021.851,1025.156 1021.661,1023.999 993.5,1023.999L0,1023.999C-1.027,1022.092 0,1019.666 0,1017.5L0,0Z" style="fill:rgb(1,15,35);"/>
        <path d="M367.321,868.601C324.814,792.759 310.486,703.505 309.122,701.726C305.758,697.338 215.815,682.994 130.203,627.948C10.325,550.868 -9.503,418.79 208.66,336.933C239.291,325.44 251.556,362.978 228.256,376.067C224.065,378.422 -23.093,457.439 139.826,582.066C172.765,607.263 232.983,632.42 263.405,641.808C278.166,646.364 300.725,654.848 301.006,651.437C301.907,640.474 290.486,611.96 291.807,495.5C292.117,468.173 334.352,467.955 334.794,495.501C335.158,518.243 334.353,518.147 335.135,546.509C336.361,591.016 344.591,662.904 347.765,665.078C349.97,666.589 398.294,674.801 406.574,676.003C459.771,683.727 459.844,682.329 513.478,685.897C528.646,686.905 537.145,702.498 533.21,714.42C527.17,732.719 507.537,729.502 506.501,729.472C428.088,727.251 357.86,711.258 356.58,712.575C354.577,714.636 387.233,854.493 447.893,904.033C536.47,976.372 606.265,824.64 614.816,807.686C623.724,790.022 656.101,794.699 654.849,819.513C654.27,830.972 606.515,923.909 548.315,953.147C442.429,1006.343 378.817,888.369 367.321,868.601Z" style="fill:rgb(15,140,233);"/>
        <path d="M917.687,466.363C911.752,459.065 881.519,412.685 753.568,374.29C722.076,364.84 720.449,363.87 719.978,366.586C719.813,367.541 730.947,430.786 729.359,517.496C729.052,534.207 710.764,542.746 698.618,536.271C677.631,525.083 693.247,512.786 681.753,409.474C675.855,356.457 674.987,355.06 670.559,354.189C600.788,340.467 527.958,338.16 515.49,337.765C503.559,337.387 493.131,325.311 495.127,312.441C498.691,289.458 524.255,294.099 530.505,294.339C614.664,297.58 661.922,309.372 663.664,307.72C666.167,305.349 650.166,255.64 647.257,247.587C576.913,52.816 484.19,81.286 426.009,184.246C410.667,211.395 381.836,195.291 384.138,174.445C385.031,166.366 437.109,67.781 514.54,60.987C660.852,48.15 710.627,316.487 711.565,317.435C713.877,319.769 790.621,332.261 868.246,372.957C1015.501,450.157 1026.685,587.624 825.36,667.116C802.81,676.02 793.169,655.865 793.906,646.504C795.314,628.62 809.133,627.537 830.581,617.676C985.391,546.499 922.82,473.937 917.687,466.363Z" style="fill:rgb(38,191,219);"/>
        <path d="M441.646,415.724C535.504,356.921 648.244,436.916 631.091,540.435C614.173,642.534 487.01,680.192 417.727,604.286C361.291,542.454 383.208,451.802 441.646,415.724Z" style="fill:rgb(6,116,234);"/>
        <path d="M431.47,494.491C431.83,493.595 436.7,477.118 450.864,462.897C452.439,461.315 461.909,451.806 473.582,446.705C539.261,417.999 598.105,473.657 589.725,530.536C578.179,608.895 483.025,621.323 444.983,571.115C416.941,534.105 430.4,498.569 431.47,494.491Z" style="fill:rgb(1,15,35);"/>
        <path d="M310.253,253.161C313.082,251.391 330.581,240.442 350.52,242.248C353.485,242.516 370.616,244.067 385.112,255.957C422.655,286.751 410.408,341.611 374.344,359.204C307.482,391.821 245.836,302.289 310.253,253.161Z" style="fill:rgb(47,202,207);"/>
        <path d="M642.436,735.57C638.8,731.914 614.433,707.416 624.773,673.573C643.32,612.871 720.86,617.39 741.008,663.733C768.298,726.503 693.955,780.588 642.436,735.57Z" style="fill:rgb(46,201,207);"/>
    </g>
</svg>
